{"title":"I Melt with You 2011 LIMITED BRRip XviD Ac3 Feel-Free","uid":7043252,"size":1349243000,"categoryP":"video","categoryS":"movies","magnet":"?xt=urn:btih:7ccc9b66e5b35ae72493f0c651fe65179735d069&amp;dn=I+Melt+with+You+2011+LIMITED+BRRip+XviD+Ac3+Feel-Free&amp;tr=udp%3A%2F%2Ftracker.openbittorrent.com%3A80&amp;tr=udp%3A%2F%2Fopen.demonii.com%3A1337&amp;tr=udp%3A%2F%2Ftracker.coppersurfer.tk%3A6969&amp;tr=udp%3A%2F%2Fexodus.desync.com%3A6969","seeders":0,"leechers":1,"uploader":".BONE.","files":8,"time":1329632085,"description":"Genre:Drama\nLanguage:English &lt;a href=&quot;\nhttp://www.imdb.com/title/tt1691920/&quot; rel=&quot;nofollow&quot; target=&quot;_NEW&quot;&gt;\nhttp://www.imdb.com/title/tt1691920/&lt;/a&gt;\nSource:LIMITED 720p BluRay x264-PSYCHD Thanks!\nEncoder:Tony\n\nFormat : AVI\nFormat/Info : Audio Video Interleave\nFile size : 1.26 GiB\nDuration : 2h 2mn\nOverall bit rate : 1 468 Kbps\n\nVideo\nID : 0\nFormat : MPEG-4 Visual\nFormat profile : Advanced Simple@L5\nFormat settings, BVOP : 1\nFormat settings, QPel : No\nFormat settings, GMC : No warppoints\nFormat settings, Matrix : Default (H.263)\nCodec ID : XVID\nCodec ID/Hint : XviD\nDuration : 2h 2mn\nBit rate : 1 011 Kbps\nWidth : 640 pixels\nHeight : 272 pixels\nDisplay aspect ratio : 2.35:1\nFrame rate : 23.976 fps\nColor space : YUV\nChroma subsampling : 4:2:0\nBit depth : 8 bits\nScan type : Progressive\nCompression mode : Lossy\nBits/(Pixel*Frame) : 0.242\nStream size : 885 MiB (69%)\nWriting library : XviD 1.2.1 (UTC 2008-12-04)\n\nAudio\nID : 1\nFormat : AC-3\nFormat/Info : Audio Coding 3\nMode extension : CM (complete main)\nCodec ID : 2000\nDuration : 2h 2mn\nBit rate mode : Constant\nBit rate : 448 Kbps\nChannel(s) : 6 channels\nChannel positions : Front: L C R, Side: L R, LFE\nSampling rate : 48.0 KHz\nBit depth : 16 bits\nCompression mode : Lossy\nStream size : 392 MiB (31%)\nAlignment : Aligned on interleaves\nInterleave, duration : 42 ms (1.00 video frame)\nInterleave, preload duration : 512 ms\n\n\nPlot:\nWhen four 40-something college friends meet up for their annual reunion, things start to spiral out of control, and a pact they made as young men is revisited\n","torrent":{"xt":"urn:btih:7ccc9b66e5b35ae72493f0c651fe65179735d069","amp;dn":"I+Melt+with+You+2011+LIMITED+BRRip+XviD+Ac3+Feel-Free","amp;tr":["udp%3A%2F%2Ftracker.openbittorrent.com%3A80","udp%3A%2F%2Fopen.demonii.com%3A1337","udp%3A%2F%2Ftracker.coppersurfer.tk%3A6969","udp%3A%2F%2Fexodus.desync.com%3A6969"],"infoHash":"7ccc9b66e5b35ae72493f0c651fe65179735d069","infoHashBuffer":{"type":"Buffer","data":[124,204,155,102,229,179,90,231,36,147,240,198,81,254,101,23,151,53,208,105]},"announce":[],"urlList":[]}}